<svg width="86" height="61" viewBox="0 0 86 61" fill="none" xmlns="http://www.w3.org/2000/svg">
<g filter="url(#filter0_d_524_96)">
<mask id="mask0_524_96" style="mask-type:alpha" maskUnits="userSpaceOnUse" x="0" y="1" width="84" height="59">
<path d="M2.42382 1L27.6316 1.36842L25.2078 20.1579H0L2.42382 1Z" fill="#D9D9D9"/>
<path d="M35.6011 1L84 1.36842L79.3463 20.1579H30.9474L35.6011 1Z" fill="#D9D9D9"/>
<path d="M48.4473 17.0263L36.6578 59.3948L20.4474 59.3947L35.1842 4.68426L48.4473 17.0263Z" fill="#D9D9D9"/>
</mask>
<g mask="url(#mask0_524_96)">
<path d="M2.42382 1L27.6316 1.36842L25.2078 20.1579H0L2.42382 1Z" fill="#14AF6C"/>
<path d="M35.6011 1L84 1.36842L79.3463 20.1579H30.9474L35.6011 1Z" fill="#14AF6C"/>
<path d="M48.4473 17.0263L36.6578 59.3948L20.4474 59.3947L35.1842 4.68426L48.4473 17.0263Z" fill="#14AF6C"/>
<path d="M92.6568 36.5526C92.6568 54.0513 78.4713 68.2368 60.9726 68.2368C43.4739 68.2368 29.2883 54.0513 29.2883 36.5526C29.2883 19.0539 43.4739 4.86837 60.9726 4.86837C78.4713 4.86837 92.6568 19.0539 92.6568 36.5526Z" fill="white" stroke="black" stroke-width="1.10526"/>
<path fill-rule="evenodd" clip-rule="evenodd" d="M83.5043 14.1928C75.6232 6.24188 63.5905 2.94922 52.8931 5.81624C51.6538 6.14853 50.2744 6.5965 49.8277 6.81179C49.3809 7.02707 49.8942 6.93773 50.9682 6.61337C53.8583 5.74082 56.2507 5.30611 59.1348 5.12963C61.7779 4.96784 65.9197 5.2242 65.8731 5.54664C65.8587 5.64614 64.9381 5.88753 63.827 6.08305C61.7815 6.44336 58.0372 7.8335 56.9761 8.62654C56.6456 8.87358 55.605 9.01565 54.5521 8.95742C51.7731 8.80389 49.0818 9.15744 46.1333 10.0641C44.673 10.5132 43.4021 10.7788 43.3091 10.6543C43.1316 10.4168 44.7482 9.41413 47.2917 8.18379C48.0844 7.80019 48.7452 7.40386 48.7596 7.30288C48.8079 6.97035 45.6843 8.57752 43.4129 10.0541C29.7781 18.9183 25.3028 37.4113 33.2862 51.9006C40.6979 65.3516 57.4846 71.5216 71.909 66.0964C77.9199 63.8356 82.3831 60.4999 86.2537 55.3756C91.9639 47.8162 93.9762 37.5318 91.5306 28.4074C91.1983 27.168 90.7537 25.7862 90.5422 25.3366C90.3044 24.8312 90.3042 25.0843 90.5417 26.0002C91.0023 27.7774 90.7354 31.8089 89.9963 34.2346C89.7019 35.2006 89.3964 35.9784 89.3178 35.9624C89.2388 35.9463 88.579 35.6326 87.8513 35.265C87.1236 34.8974 85.2925 34.1522 83.7823 33.6091L81.0361 32.6215L80.5219 30.7061C80.2391 29.6526 79.8319 28.425 79.6169 27.9781C79.4019 27.5312 79.4498 27.9096 79.7233 28.8191C80.9318 32.8387 81.1293 32.0854 77.3479 37.8806C75.4871 40.7325 73.854 43.1484 73.7191 43.2492C73.1357 43.6852 62.1923 42.6714 60.0418 41.9822C59.1111 41.6839 59.0978 41.6632 56.2753 36.1414C54.7175 33.0937 53.3175 30.3217 53.1642 29.9811C52.8812 29.3537 53.9056 26.9545 55.9035 23.5642C56.3947 22.7309 56.6691 22.1373 56.5132 22.245C56.1356 22.5065 54.9013 24.6317 53.6353 27.1993L52.6055 29.2883L49.803 29.4624C48.2617 29.5578 45.4986 29.9267 43.663 30.2822L40.3261 30.9283L38.5159 28.286C36.9266 25.9663 36.6668 25.4158 36.387 23.7755C36.1041 22.1163 36.1792 21.6694 37.0592 19.7836C38.1682 17.407 40.7655 13.8199 42.5861 12.1506C43.5487 11.2681 44.2354 10.9117 46.0356 10.3606C49.0129 9.44864 51.9617 9.0636 54.2337 9.29008L56.0872 9.47503L58.723 13.5241L61.3586 17.5734L62.3804 17.5787C62.9422 17.5815 66.0017 17.9383 69.179 18.3715L74.9559 19.1591L76.351 21.687C77.1181 23.0771 77.8624 24.2947 78.0046 24.3929C78.304 24.5992 76.2746 20.7649 75.623 19.8931C75.3004 19.4614 75.3261 18.8883 75.7202 17.7177C76.0145 16.8437 76.5466 15.1226 76.9027 13.8931L77.5497 11.6582L78.3948 11.9656C78.8595 12.1346 80.1905 12.9226 81.3524 13.716C82.5144 14.5099 83.3682 15.0193 83.2501 14.8479C82.851 14.269 79.8651 12.3408 77.9057 11.3969C76.8347 10.8808 74.7002 9.77202 73.1623 8.93324C71.6242 8.09422 69.5029 7.06025 68.4481 6.63483C67.3932 6.20982 66.5433 5.77124 66.5593 5.66018C66.6064 5.33444 70.5248 6.46701 73.1304 7.5592C74.4519 8.11339 76.3427 9.06703 77.3322 9.67859C79.7111 11.1494 83.1267 14.0206 83.5386 14.896C83.7197 15.2806 84.479 16.167 85.2261 16.8661C86.5104 18.0676 87.3242 19.3102 89.7262 23.7369C89.9609 24.1691 89.8733 23.8203 89.5317 22.9617C88.7596 21.021 85.3378 16.0425 83.5043 14.1928ZM91.8026 30.9447C92.9403 37.6663 91.9789 44.3158 88.984 50.4399C88.4403 51.5518 87.9133 52.5234 87.8129 52.5996C87.7128 52.6755 87.5548 52.2817 87.4623 51.7244C87.3699 51.1671 87.2126 50.6995 87.1127 50.6851C87.013 50.6704 87.0365 51.0709 87.1645 51.5747C87.5328 53.0225 87.2526 53.7069 85.2555 56.2354C83.6022 58.3287 82.9387 58.9384 79.6018 61.4323C76.2613 63.9288 75.4936 64.3891 73.0048 65.3871C71.4558 66.0083 70.028 66.4935 69.8323 66.4652C69.4822 66.4146 69.0441 63.9905 69.3046 63.5454C69.3771 63.4216 68.5019 63.3517 67.3596 63.3902C63.7551 63.5114 58.7924 63.2386 57.2084 62.8319C55.7811 62.4654 55.565 62.3013 53.8689 60.2956L52.0555 58.151L53.5752 60.2721L55.0948 62.3931L53.7299 63.1536C52.5047 63.8365 51.2564 64.3165 49.75 64.6838C49.389 64.7717 49.3048 64.9591 49.4713 65.3027C49.7684 65.9155 47.1185 64.7823 44.5122 63.1821C38.7537 59.6466 33.4804 53.3603 33.3021 49.8185C33.2503 48.7918 33.3931 48.5035 34.431 47.5389L35.619 46.4349L34.3425 47.3289C32.7902 48.4161 32.4919 48.2866 31.3376 46.0262C29.3143 42.0644 28.9697 34.1232 30.5717 28.3758C31.1683 26.2364 32.5129 24.3671 34.5877 22.7944L35.8045 21.8717L36.1349 23.8487C36.4342 25.6375 36.6447 26.0852 38.347 28.5547L40.2283 31.2838L39.5487 33.626C38.6491 36.7268 37.8627 41.3281 37.9266 43.115C37.9719 44.3734 37.8605 44.6462 37.0311 45.3117L36.0842 46.0718L37.1218 45.5202L38.1596 44.9685L41.6138 47.2636C43.5134 48.5258 46.1181 50.0459 47.4018 50.6416L49.7357 51.724L50.0929 53.2121C50.2895 54.0304 50.5597 54.836 50.6938 55.002C50.8278 55.1681 50.7178 54.4552 50.4491 53.4177L49.9608 51.5315L52.6319 49.0948C54.1013 47.7546 56.2003 45.6571 57.2967 44.4333L59.2903 42.208L64.0399 42.8623C66.6523 43.222 69.9027 43.5643 71.263 43.6229C72.6233 43.6815 73.7923 43.8666 73.8606 44.0343C73.929 44.2022 74.8729 46.4811 75.9578 49.0987L77.9306 53.858L77.2488 54.8757C76.8739 55.4354 76.0417 56.521 75.3996 57.2878C74.3027 58.5977 74.2948 58.6231 75.2677 57.7085C75.8374 57.173 76.7506 56.0781 77.297 55.2753C78.2111 53.9323 78.3972 53.7792 79.6271 53.3612C80.362 53.1113 82.3247 52.2937 83.9883 51.5446L87.0134 50.1822L87.7994 47.2822C88.2319 45.687 88.8183 42.5716 89.1032 40.3591C89.3877 38.1465 89.8376 35.6917 90.1029 34.9039C90.3678 34.1163 90.7123 32.32 90.8684 30.9122C91.0241 29.5044 91.2137 28.4366 91.2892 28.5392C91.365 28.642 91.5961 29.7243 91.8026 30.9447ZM78.1678 25.1024C78.2236 25.3141 78.4222 25.5799 78.6092 25.6931C78.7962 25.8067 78.7504 25.6336 78.5076 25.3088C78.2648 24.9839 78.1119 24.8912 78.1678 25.1024ZM78.8206 26.479C78.8796 26.7004 79.0405 26.8979 79.1776 26.9177C79.3147 26.9375 79.2662 26.7565 79.07 26.515C78.8529 26.2482 78.755 26.2341 78.8206 26.479ZM59.2532 19.1771C58.6684 19.6141 58.4638 19.8389 58.7982 19.6769C59.1325 19.5147 59.6112 19.157 59.8615 18.8823C60.1115 18.6074 59.838 18.74 59.2532 19.1771ZM57.876 20.5371C57.6133 20.7275 57.2538 21.1335 57.0775 21.4395C56.6688 22.1482 57.29 21.6839 57.9044 20.8215C58.2656 20.3144 58.2602 20.2588 57.876 20.5371ZM71.8902 60.7222C70.5773 61.8109 69.4878 62.774 69.4692 62.8619C69.4079 63.1519 72.1794 60.9126 73.2388 59.8166C73.939 59.092 73.4997 59.3871 71.8902 60.7222ZM50.9849 55.7522C51.0439 55.9736 51.2048 56.1711 51.3419 56.191C51.4789 56.2108 51.4305 56.0297 51.2342 55.7883C51.0172 55.5215 50.9193 55.5073 50.9849 55.7522ZM51.5331 56.9834C51.6449 57.2581 51.8873 57.5741 52.0716 57.6857C52.2559 57.7973 52.1642 57.5726 51.8681 57.1863C51.572 56.8 51.4213 56.7087 51.5331 56.9834Z" fill="black"/>
</g>
</g>
<defs>
<filter id="filter0_d_524_96" x="0" y="0.85" width="85.5" height="59.8948" filterUnits="userSpaceOnUse" color-interpolation-filters="sRGB">
<feFlood flood-opacity="0" result="BackgroundImageFix"/>
<feColorMatrix in="SourceAlpha" type="matrix" values="0 0 0 0 0 0 0 0 0 0 0 0 0 0 0 0 0 0 127 0" result="hardAlpha"/>
<feOffset dx="0.75" dy="0.6"/>
<feGaussianBlur stdDeviation="0.375"/>
<feComposite in2="hardAlpha" operator="out"/>
<feColorMatrix type="matrix" values="0 0 0 0 0 0 0 0 0 0 0 0 0 0 0 0 0 0 0.3 0"/>
<feBlend mode="normal" in2="BackgroundImageFix" result="effect1_dropShadow_524_96"/>
<feBlend mode="normal" in="SourceGraphic" in2="effect1_dropShadow_524_96" result="shape"/>
</filter>
</defs>
</svg>
