<svg width="617" height="433" viewBox="0 0 617 433" fill="none" xmlns="http://www.w3.org/2000/svg">
<g filter="url(#filter0_d_736_2692)">
<mask id="mask0_736_2692" style="mask-type:alpha" maskUnits="userSpaceOnUse" x="0" y="2" width="606" height="421">
<path d="M17.469 2L199.147 4.65529L181.678 140.075H0L17.469 2Z" fill="#D9D9D9"/>
<path d="M256.585 2L605.405 4.65529L571.865 140.075H223.044L256.585 2Z" fill="#D9D9D9"/>
<path d="M349.17 117.505L264.201 422.863L147.369 422.863L253.58 28.5532L349.17 117.505Z" fill="#D9D9D9"/>
</mask>
<g mask="url(#mask0_736_2692)">
<path d="M17.469 2L199.147 4.65529L181.678 140.075H0L17.469 2Z" fill="#14AF6C"/>
<path d="M256.585 2L605.405 4.65529L571.865 140.075H223.044L256.585 2Z" fill="#14AF6C"/>
<path d="M349.17 117.505L264.201 422.863L147.369 422.863L253.58 28.5532L349.17 117.505Z" fill="#14AF6C"/>
<circle cx="439.45" cy="258.235" r="228.355" fill="white" stroke="black" stroke-width="7.96586"/>
<path fill-rule="evenodd" clip-rule="evenodd" d="M601.828 97.0851C545.028 39.7811 458.305 16.0503 381.207 36.7134C372.275 39.1083 362.333 42.337 359.113 43.8886C355.894 45.4402 359.593 44.7963 367.334 42.4585C388.163 36.1699 405.406 33.0369 426.192 31.7649C445.242 30.5989 475.092 32.4465 474.756 34.7704C474.653 35.4875 468.017 37.2272 460.01 38.6364C445.267 41.2332 418.282 51.2522 410.634 56.9679C408.252 58.7483 400.752 59.7723 393.164 59.3526C373.135 58.246 353.738 60.7942 332.487 67.3287C321.963 70.5658 312.803 72.4798 312.133 71.5824C310.854 69.871 322.505 62.6442 340.836 53.7769C346.549 51.0122 351.312 48.1557 351.416 47.428C351.764 45.0314 329.252 56.6146 312.881 67.257C214.612 131.143 182.357 264.426 239.895 368.853C293.313 465.797 414.298 510.266 518.258 471.165C561.58 454.871 593.747 430.83 621.644 393.898C662.798 339.416 677.301 265.294 659.675 199.533C657.28 190.6 654.076 180.641 652.551 177.401C650.838 173.758 650.837 175.582 652.548 182.183C655.868 194.992 653.944 224.048 648.617 241.53C646.495 248.493 644.294 254.098 643.727 253.983C643.158 253.867 638.402 251.606 633.158 248.957C627.913 246.308 614.716 240.937 603.831 237.022L584.039 229.905L580.333 216.1C578.295 208.507 575.361 199.659 573.811 196.438C572.261 193.217 572.606 195.945 574.578 202.5C583.288 231.47 584.711 226.041 557.458 267.808C544.047 288.362 532.276 305.774 531.304 306.501C527.099 309.643 448.228 302.336 432.729 297.369C426.021 295.219 425.925 295.07 405.583 255.273C394.356 233.308 384.265 213.329 383.16 210.874C381.121 206.353 388.504 189.061 402.903 164.626C406.443 158.621 408.421 154.342 407.297 155.119C404.576 157.004 395.68 172.32 386.556 190.825L379.134 205.882L358.935 207.137C347.827 207.824 327.913 210.483 314.684 213.045L290.633 217.701L277.587 198.658C266.133 181.939 264.261 177.971 262.244 166.15C260.205 154.191 260.746 150.971 267.089 137.379C275.082 120.251 293.8 94.3975 306.922 82.3665C313.86 76.0059 318.809 73.4377 331.783 69.4658C353.241 62.8929 374.494 60.1179 390.868 61.7501L404.227 63.0831L423.224 92.2658L442.219 121.45L449.583 121.488C453.633 121.508 475.683 124.079 498.583 127.202L540.218 132.878L550.272 151.097C555.802 161.116 561.166 169.892 562.191 170.599C564.348 172.086 549.722 144.452 545.026 138.168C542.701 135.057 542.886 130.926 545.727 122.49C547.848 116.191 551.683 103.786 554.249 94.9253L558.912 78.8174L565.003 81.0331C568.352 82.2509 577.945 87.9301 586.319 93.649C594.693 99.3707 600.847 103.042 599.996 101.807C597.119 97.6346 575.599 83.7377 561.478 76.9343C553.759 73.2149 538.375 65.2236 527.291 59.1783C516.206 53.1313 500.917 45.6793 493.315 42.6132C485.712 39.5501 479.586 36.3892 479.702 35.5887C480.042 33.241 508.282 41.4037 527.061 49.2754C536.586 53.2695 550.213 60.1426 557.345 64.5502C574.49 75.1505 599.107 95.8441 602.075 102.153C603.38 104.925 608.853 111.313 614.238 116.352C623.493 125.012 629.358 133.967 646.671 165.871C648.362 168.987 647.731 166.473 645.269 160.284C639.704 146.297 615.043 110.416 601.828 97.0851ZM661.635 217.819C669.835 266.263 662.906 314.188 641.321 358.326C637.403 366.339 633.605 373.342 632.881 373.891C632.16 374.438 631.021 371.6 630.354 367.583C629.688 363.567 628.555 360.197 627.835 360.092C627.116 359.987 627.285 362.873 628.208 366.504C630.862 376.939 628.843 381.872 614.449 400.095C602.533 415.182 597.751 419.576 573.702 437.55C549.626 455.543 544.093 458.861 526.156 466.053C514.992 470.53 504.702 474.027 503.291 473.823C500.768 473.459 497.61 455.987 499.488 452.779C500.01 451.887 493.702 451.384 485.469 451.661C459.492 452.534 423.724 450.568 412.308 447.637C402.021 444.995 400.464 443.813 388.24 429.357L375.17 413.901L386.123 429.188L397.075 444.475L387.238 449.956C378.408 454.878 369.411 458.337 358.554 460.984C355.952 461.618 355.345 462.968 356.545 465.445C358.686 469.861 339.588 461.694 320.804 450.161C279.301 424.68 241.295 379.373 240.01 353.847C239.637 346.447 240.666 344.369 248.146 337.418L256.709 329.46L247.509 335.904C236.321 343.74 234.171 342.806 225.852 326.515C211.269 297.961 208.786 240.728 220.332 199.305C224.632 183.885 234.323 170.414 249.276 159.079L258.046 152.429L260.427 166.677C262.584 179.57 264.101 182.796 276.37 200.594L289.929 220.263L285.031 237.144C278.548 259.493 272.88 292.655 273.34 305.533C273.666 314.603 272.864 316.569 266.886 321.366L260.061 326.843L267.539 322.868L275.019 318.892L299.914 335.433C313.606 344.53 332.378 355.486 341.63 359.779L358.451 367.58L361.025 378.305C362.442 384.203 364.389 390.009 365.356 391.206C366.322 392.402 365.529 387.265 363.592 379.787L360.073 366.193L379.324 348.631C389.914 338.972 405.042 323.855 412.944 315.035L427.313 298.997L461.544 303.712C480.372 306.305 503.798 308.771 513.602 309.194C523.406 309.617 531.832 310.95 532.324 312.159C532.817 313.369 539.619 329.794 547.439 348.659L561.657 382.96L556.743 390.295C554.041 394.329 548.044 402.153 543.416 407.68C535.51 417.12 535.453 417.303 542.465 410.712C546.571 406.852 553.153 398.961 557.091 393.175C563.679 383.496 565.02 382.392 573.884 379.38C579.181 377.579 593.326 371.686 605.316 366.287L627.119 356.468L632.784 335.567C635.901 324.07 640.127 301.617 642.18 285.671C644.231 269.725 647.474 252.032 649.385 246.355C651.295 240.678 653.777 227.732 654.902 217.586C656.025 207.439 657.391 199.743 657.936 200.483C658.482 201.224 660.147 209.024 661.635 217.819ZM563.367 175.713C563.769 177.238 565.201 179.154 566.548 179.97C567.896 180.789 567.566 179.542 565.816 177.2C564.066 174.859 562.964 174.191 563.367 175.713ZM568.072 185.634C568.497 187.23 569.657 188.653 570.644 188.796C571.632 188.939 571.283 187.634 569.869 185.894C568.304 183.971 567.599 183.869 568.072 185.634ZM427.045 133.008C422.831 136.158 421.356 137.778 423.766 136.61C426.176 135.441 429.626 132.863 431.429 130.883C433.231 128.902 431.26 129.858 427.045 133.008ZM417.119 142.81C415.226 144.182 412.635 147.108 411.364 149.314C408.419 154.421 412.896 151.075 417.324 144.859C419.928 141.204 419.888 140.804 417.119 142.81ZM518.123 432.432C508.66 440.279 500.808 447.22 500.674 447.853C500.232 449.943 520.207 433.804 527.843 425.906C532.889 420.683 529.722 422.81 518.123 432.432ZM367.454 396.612C367.879 398.208 369.039 399.632 370.027 399.775C371.015 399.917 370.666 398.612 369.251 396.872C367.687 394.949 366.981 394.847 367.454 396.612ZM371.405 405.486C372.211 407.466 373.958 409.743 375.286 410.547C376.614 411.352 375.954 409.733 373.82 406.948C371.686 404.164 370.599 403.506 371.405 405.486Z" fill="black"/>
</g>
</g>
<defs>
<filter id="filter0_d_736_2692" x="0" y="0.918919" width="616.216" height="431.674" filterUnits="userSpaceOnUse" color-interpolation-filters="sRGB">
<feFlood flood-opacity="0" result="BackgroundImageFix"/>
<feColorMatrix in="SourceAlpha" type="matrix" values="0 0 0 0 0 0 0 0 0 0 0 0 0 0 0 0 0 0 127 0" result="hardAlpha"/>
<feOffset dx="5.40541" dy="4.32432"/>
<feGaussianBlur stdDeviation="2.7027"/>
<feComposite in2="hardAlpha" operator="out"/>
<feColorMatrix type="matrix" values="0 0 0 0 0 0 0 0 0 0 0 0 0 0 0 0 0 0 0.3 0"/>
<feBlend mode="normal" in2="BackgroundImageFix" result="effect1_dropShadow_736_2692"/>
<feBlend mode="normal" in="SourceGraphic" in2="effect1_dropShadow_736_2692" result="shape"/>
</filter>
</defs>
</svg>
