<svg width="513" height="296" viewBox="0 0 513 296" fill="none" xmlns="http://www.w3.org/2000/svg">
<g filter="url(#filter0_d_466_733)">
<mask id="mask0_466_733" style="mask-type:alpha" maskUnits="userSpaceOnUse" x="0" y="1" width="335" height="233">
<path d="M9.63797 1L109.873 2.46497L100.235 77.1785H0L9.63797 1Z" fill="#D9D9D9"/>
<path d="M141.562 1L334.013 2.46497L315.508 77.1785H123.058L141.562 1Z" fill="#D9D9D9"/>
<path d="M192.643 64.7262L145.764 233.198L81.3061 233.198L139.905 15.6499L192.643 64.7262Z" fill="#D9D9D9"/>
</mask>
<g mask="url(#mask0_466_733)">
<path d="M9.63796 1L109.873 2.46497L100.235 77.1785H0L9.63796 1Z" fill="#14AF6C"/>
<path d="M141.562 1L334.013 2.46497L315.508 77.1785H123.058L141.562 1Z" fill="#14AF6C"/>
<path d="M192.643 64.7262L145.764 233.198L81.3061 233.198L139.905 15.6499L192.643 64.7262Z" fill="#14AF6C"/>
<path d="M368.436 142.369C368.436 211.95 312.029 268.356 242.448 268.356C172.867 268.356 116.461 211.95 116.461 142.369C116.461 72.7877 172.867 16.3812 242.448 16.3812C312.029 16.3812 368.436 72.7877 368.436 142.369Z" fill="white" stroke="black" stroke-width="4.39491"/>
<path fill-rule="evenodd" clip-rule="evenodd" d="M332.041 53.4589C300.703 21.8433 252.856 8.75052 210.32 20.1508C205.392 21.4721 199.907 23.2534 198.13 24.1094C196.354 24.9655 198.395 24.6102 202.666 23.3204C214.158 19.8509 223.671 18.1223 235.139 17.4206C245.649 16.7773 262.118 17.7966 261.933 19.0788C261.875 19.4744 258.215 20.4342 253.797 21.2117C245.663 22.6444 230.774 28.1721 226.555 31.3255C225.241 32.3078 221.103 32.8728 216.916 32.6412C205.866 32.0307 195.164 33.4366 183.44 37.0418C177.633 38.8277 172.58 39.8837 172.21 39.3886C171.504 38.4444 177.933 34.4573 188.046 29.565C191.198 28.0396 193.826 26.4637 193.883 26.0622C194.075 24.7399 181.655 31.1306 172.623 37.0022C118.406 72.2491 100.611 145.784 132.356 203.398C161.827 256.884 228.577 281.418 285.933 259.846C309.835 250.856 327.582 237.592 342.973 217.216C365.679 187.157 373.68 146.263 363.956 109.981C362.635 105.053 360.866 99.5581 360.025 97.7706C359.08 95.761 359.079 96.7673 360.023 100.409C361.855 107.476 360.794 123.507 357.855 133.152C356.684 136.993 355.469 140.086 355.157 140.022C354.843 139.959 352.219 138.711 349.326 137.249C346.432 135.788 339.151 132.824 333.146 130.665L322.226 126.738L320.181 119.122C319.057 114.932 317.438 110.051 316.583 108.274C315.728 106.497 315.918 108.002 317.006 111.618C321.811 127.602 322.596 124.606 307.56 147.65C300.161 158.99 293.667 168.597 293.131 168.997C290.811 170.731 247.296 166.7 238.745 163.959C235.044 162.773 234.992 162.691 223.769 140.734C217.574 128.615 212.007 117.593 211.397 116.239C210.272 113.744 214.346 104.204 222.29 90.7227C224.243 87.4092 225.334 85.0488 224.714 85.4771C223.213 86.517 218.305 94.9676 213.271 105.177L209.176 113.484L198.032 114.176C191.903 114.556 180.916 116.022 173.618 117.436L160.349 120.005L153.151 109.498C146.831 100.274 145.798 98.0853 144.686 91.5632C143.56 84.9656 143.859 83.1886 147.359 75.69C151.768 66.2398 162.096 51.9761 169.335 45.3384C173.163 41.8292 175.893 40.4122 183.052 38.2208C194.891 34.5945 206.616 33.0634 215.65 33.964L223.02 34.6994L233.501 50.8L243.981 66.9014L248.044 66.9223C250.278 66.9336 262.444 68.3522 275.078 70.0749L298.049 73.2066L303.596 83.2585C306.647 88.7861 309.606 93.6277 310.172 94.0179C311.362 94.8386 303.293 79.5919 300.702 76.1251C299.419 74.4086 299.521 72.1298 301.088 67.4751C302.259 63.9998 304.374 57.1559 305.79 52.2673L308.363 43.3803L311.723 44.6027C313.571 45.2746 318.863 48.408 323.484 51.5631C328.104 54.72 331.499 56.7452 331.03 56.0639C329.443 53.7621 317.57 46.0949 309.778 42.3414C305.52 40.2893 297.032 35.8803 290.917 32.5451C284.801 29.2088 276.366 25.0974 272.172 23.4058C267.977 21.7158 264.597 19.9719 264.661 19.5302C264.849 18.235 280.429 22.7385 290.79 27.0814C296.045 29.285 303.563 33.0771 307.498 35.5088C316.957 41.3572 330.539 52.7742 332.177 56.2549C332.897 57.7844 335.916 61.3089 338.887 64.0891C343.994 68.8665 347.229 73.8076 356.781 91.4096C357.714 93.1283 357.366 91.7414 356.007 88.3271C352.937 80.6102 339.331 60.8139 332.041 53.4589ZM365.037 120.07C369.561 146.798 365.738 173.239 353.829 197.59C351.668 202.011 349.572 205.875 349.173 206.178C348.775 206.48 348.146 204.914 347.779 202.698C347.411 200.482 346.786 198.622 346.389 198.565C345.992 198.507 346.086 200.099 346.595 202.103C348.059 207.859 346.945 210.581 339.004 220.635C332.43 228.959 329.791 231.383 316.523 241.299C303.24 251.227 300.187 253.057 290.291 257.025C284.131 259.495 278.454 261.425 277.676 261.312C276.284 261.111 274.541 251.472 275.578 249.702C275.866 249.21 272.385 248.932 267.843 249.085C253.511 249.567 233.777 248.482 227.479 246.865C221.803 245.407 220.944 244.755 214.2 236.78L206.989 228.252L213.032 236.686L219.074 245.12L213.647 248.144C208.775 250.86 203.812 252.768 197.822 254.229C196.386 254.578 196.051 255.323 196.713 256.69C197.895 259.126 187.358 254.621 176.994 248.258C154.096 234.199 133.128 209.203 132.419 195.119C132.213 191.037 132.781 189.89 136.908 186.055L141.632 181.665L136.556 185.22C130.383 189.543 129.197 189.028 124.607 180.04C116.562 164.286 115.192 132.709 121.562 109.855C123.934 101.348 129.281 93.9157 137.531 87.662L142.369 83.9931L143.683 91.854C144.873 98.9672 145.71 100.747 152.479 110.567L159.96 121.419L157.257 130.732C153.681 143.062 150.554 161.358 150.808 168.464C150.987 173.467 150.545 174.552 147.247 177.199L143.481 180.221L147.607 178.028L151.734 175.834L165.469 184.96C173.023 189.979 183.38 196.023 188.484 198.392L197.765 202.696L199.185 208.613C199.967 211.867 201.041 215.07 201.574 215.731C202.107 216.391 201.67 213.556 200.601 209.431L198.66 201.931L209.281 192.241C215.124 186.913 223.47 178.572 227.83 173.706L235.757 164.857L254.643 167.459C265.031 168.889 277.956 170.25 283.365 170.483C288.774 170.716 293.422 171.452 293.694 172.119C293.966 172.787 297.719 181.849 302.033 192.257L309.877 211.182L307.166 215.228C305.676 217.454 302.367 221.771 299.813 224.82C295.452 230.028 295.42 230.129 299.289 226.493C301.554 224.363 305.185 220.009 307.358 216.817C310.993 211.477 311.733 210.868 316.623 209.206C319.546 208.213 327.35 204.962 333.965 201.983L345.994 196.565L349.119 185.034C350.839 178.691 353.171 166.303 354.304 157.505C355.435 148.707 357.224 138.946 358.279 135.814C359.332 132.682 360.702 125.539 361.322 119.941C361.942 114.343 362.695 110.097 362.996 110.505C363.297 110.914 364.216 115.218 365.037 120.07ZM310.821 96.8393C311.042 97.6809 311.832 98.7379 312.576 99.1881C313.319 99.64 313.137 98.9517 312.172 97.6599C311.206 96.368 310.598 95.9994 310.821 96.8393ZM313.416 102.313C313.651 103.193 314.291 103.979 314.836 104.058C315.381 104.136 315.188 103.416 314.408 102.456C313.545 101.396 313.156 101.339 313.416 102.313ZM235.61 73.2782C233.284 75.016 232.47 75.9098 233.8 75.2658C235.13 74.6208 237.033 73.1983 238.028 72.1061C239.023 71.013 237.935 71.5403 235.61 73.2782ZM230.133 78.6859C229.089 79.4433 227.659 81.0576 226.958 82.2744C225.333 85.0922 227.803 83.2463 230.246 79.8168C231.683 77.8004 231.661 77.5794 230.133 78.6859ZM285.859 238.476C280.638 242.805 276.306 246.635 276.232 246.984C275.988 248.137 287.009 239.233 291.221 234.875C294.005 231.994 292.258 233.167 285.859 238.476ZM202.732 218.714C202.967 219.594 203.606 220.379 204.151 220.458C204.696 220.537 204.504 219.817 203.723 218.857C202.86 217.796 202.471 217.74 202.732 218.714ZM204.912 223.609C205.356 224.702 206.32 225.958 207.053 226.402C207.786 226.845 207.421 225.952 206.244 224.416C205.067 222.88 204.467 222.517 204.912 223.609Z" fill="black"/>
</g>
</g>
<g filter="url(#filter1_d_466_733)">
<mask id="mask1_466_733" style="mask-type:alpha" maskUnits="userSpaceOnUse" x="177" y="60" width="335" height="233">
<path d="M187.625 60.6459L287.86 62.1108L278.222 136.824H177.987L187.625 60.6459Z" fill="#D9D9D9"/>
<path d="M319.549 60.6459L512 62.1108L493.495 136.824H301.044L319.549 60.6459Z" fill="#D9D9D9"/>
<path d="M370.63 124.372L323.751 292.844L259.293 292.844L317.891 75.2958L370.63 124.372Z" fill="#D9D9D9"/>
</mask>
<g mask="url(#mask1_466_733)">
<path d="M187.625 60.6459L287.86 62.1108L278.222 136.824H177.987L187.625 60.6459Z" fill="#14AF6C"/>
<path d="M319.549 60.6459L512 62.1108L493.495 136.824H301.044L319.549 60.6459Z" fill="#14AF6C"/>
<path d="M370.63 124.372L323.751 292.844L259.293 292.844L317.891 75.2958L370.63 124.372Z" fill="#14AF6C"/>
<path fill-rule="evenodd" clip-rule="evenodd" d="M510.027 113.105C478.689 81.4891 430.843 68.3964 388.307 79.7966C383.378 81.1179 377.893 82.8992 376.117 83.7553C374.341 84.6113 376.382 84.2561 380.652 82.9663C392.144 79.4967 401.657 77.7682 413.125 77.0664C423.636 76.4231 440.105 77.4425 439.919 78.7246C439.862 79.1202 436.201 80.0801 431.783 80.8575C423.65 82.2903 408.761 87.8179 404.542 90.9713C403.227 91.9537 399.09 92.5186 394.903 92.287C383.853 91.6765 373.151 93.0824 361.427 96.6876C355.62 98.4736 350.567 99.5296 350.197 99.0344C349.491 98.0902 355.919 94.1031 366.033 89.2108C369.185 87.6855 371.813 86.1095 371.87 85.708C372.062 84.3858 359.642 90.7764 350.61 96.648C296.393 131.895 278.598 205.43 310.342 263.044C339.814 316.53 406.564 341.064 463.92 319.491C487.821 310.502 505.569 297.238 520.96 276.862C543.665 246.803 551.667 205.909 541.943 169.627C540.621 164.699 538.853 159.204 538.012 157.416C537.067 155.407 537.066 156.413 538.01 160.055C539.842 167.122 538.78 183.153 535.841 192.798C534.671 196.639 533.456 199.732 533.144 199.668C532.829 199.604 530.206 198.357 527.312 196.895C524.419 195.434 517.138 192.47 511.132 190.311L500.213 186.384L498.168 178.768C497.043 174.578 495.425 169.697 494.57 167.92C493.714 166.143 493.905 167.648 494.993 171.264C499.798 187.247 500.583 184.252 485.547 207.296C478.148 218.636 471.654 228.242 471.118 228.643C468.798 230.377 425.283 226.346 416.732 223.605C413.031 222.419 412.978 222.337 401.755 200.38C395.561 188.261 389.994 177.239 389.384 175.884C388.259 173.39 392.333 163.85 400.277 150.369C402.23 147.055 403.321 144.695 402.701 145.123C401.2 146.163 396.292 154.613 391.257 164.823L387.163 173.13L376.019 173.822C369.89 174.202 358.903 175.668 351.604 177.082L338.335 179.651L331.138 169.144C324.818 159.92 323.785 157.731 322.672 151.209C321.547 144.611 321.846 142.834 325.345 135.336C329.755 125.886 340.083 111.622 347.322 104.984C351.15 101.475 353.88 100.058 361.038 97.8667C372.877 94.2403 384.603 92.7093 393.637 93.6098L401.007 94.3452L421.968 126.547L426.031 126.568C428.265 126.579 440.431 127.998 453.065 129.721L476.036 132.852L481.583 142.904C484.634 148.432 487.593 153.274 488.158 153.664C489.349 154.484 481.279 139.238 478.688 135.771C477.405 134.054 477.508 131.776 479.075 127.121C480.245 123.646 482.361 116.802 483.777 111.913L486.35 103.026L489.71 104.249C491.558 104.92 496.85 108.054 501.471 111.209C506.091 114.366 509.486 116.391 509.016 115.71C507.429 113.408 495.556 105.741 487.765 101.987C483.507 99.9352 475.019 95.5262 468.904 92.1909C462.788 88.8547 454.353 84.7432 450.158 83.0516C445.964 81.3617 442.584 79.6177 442.648 79.1761C442.835 77.8808 458.416 82.3843 468.777 86.7273C474.032 88.9309 481.55 92.7229 485.485 95.1547C494.944 101.003 508.526 112.42 510.164 115.901C510.884 117.43 513.903 120.955 516.874 123.735C521.98 128.512 525.216 133.453 534.768 151.055C535.701 152.774 535.353 151.387 533.994 147.973C530.924 140.256 517.318 120.46 510.027 113.105ZM543.024 179.716C547.548 206.444 543.725 232.884 531.816 257.236C529.654 261.657 527.559 265.521 527.16 265.823C526.762 266.125 526.133 264.56 525.766 262.344C525.398 260.128 524.773 258.268 524.375 258.211C523.979 258.153 524.072 259.745 524.581 261.748C526.046 267.505 524.932 270.227 516.99 280.281C510.416 288.605 507.778 291.029 494.509 300.945C481.227 310.872 478.174 312.703 468.277 316.671C462.118 319.141 456.441 321.071 455.663 320.958C454.27 320.757 452.528 311.118 453.564 309.348C453.853 308.856 450.372 308.578 445.83 308.731C431.498 309.213 411.764 308.128 405.465 306.511C399.79 305.053 398.931 304.401 392.187 296.425L384.976 287.898L397.061 304.766L391.634 307.79C386.762 310.506 381.798 312.414 375.808 313.874C374.373 314.224 374.038 314.969 374.7 316.335C375.881 318.772 365.345 314.266 354.981 307.903C332.083 293.845 311.115 268.848 310.406 254.765C310.2 250.682 310.768 249.536 314.895 245.701L319.619 241.31L314.543 244.865C308.37 249.189 307.184 248.674 302.594 239.685C294.549 223.932 293.178 192.355 299.549 169.501C301.921 160.994 307.268 153.561 315.518 147.308L320.356 143.639L321.67 151.5C322.86 158.613 323.697 160.393 330.466 170.213L337.947 181.064L335.244 190.378C331.667 202.708 328.54 221.004 328.794 228.11C328.974 233.113 328.532 234.198 325.234 236.845L321.468 239.867L329.721 235.48L343.456 244.606C351.01 249.625 361.366 255.669 366.471 258.038L375.751 262.342L377.172 268.259C377.953 271.513 379.028 274.716 379.561 275.376C380.094 276.037 379.657 273.202 378.588 269.077L376.646 261.576L387.268 251.887C393.11 246.558 401.457 238.218 405.817 233.352L413.744 224.503L432.63 227.105C443.018 228.535 455.942 229.896 461.351 230.129C466.76 230.362 471.409 231.098 471.68 231.765C471.953 232.433 475.706 241.494 480.02 251.903L487.864 270.827L485.153 274.874C483.662 277.1 480.353 281.416 477.8 284.465C473.438 289.674 473.407 289.775 477.276 286.139C479.541 284.009 483.172 279.655 485.345 276.463C488.98 271.123 489.72 270.514 494.61 268.852C497.532 267.858 505.337 264.607 511.952 261.629L523.981 256.211L527.106 244.68C528.826 238.337 531.157 225.949 532.29 217.151C533.422 208.353 535.211 198.592 536.265 195.459C537.319 192.328 538.689 185.185 539.309 179.587C539.928 173.989 540.682 169.743 540.983 170.151C541.284 170.56 542.203 174.864 543.024 179.716ZM488.807 156.485C489.029 157.327 489.819 158.384 490.563 158.834C491.306 159.286 491.124 158.598 490.158 157.306C489.193 156.014 488.585 155.645 488.807 156.485ZM491.403 161.959C491.638 162.839 492.278 163.625 492.823 163.703C493.368 163.782 493.175 163.062 492.395 162.102C491.532 161.041 491.142 160.985 491.403 161.959ZM413.596 132.924C411.271 134.662 410.457 135.556 411.787 134.912C413.116 134.267 415.02 132.844 416.015 131.752C417.009 130.659 415.922 131.186 413.596 132.924ZM408.12 138.332C407.075 139.089 405.646 140.703 404.945 141.92C403.32 144.738 405.79 142.892 408.233 139.463C409.669 137.446 409.648 137.225 408.12 138.332ZM463.846 298.122C458.625 302.451 454.293 306.28 454.219 306.63C453.975 307.783 464.996 298.879 469.208 294.521C471.992 291.639 470.245 292.813 463.846 298.122ZM380.719 278.359C380.953 279.24 381.593 280.025 382.138 280.104C382.683 280.183 382.491 279.463 381.71 278.503C380.847 277.442 380.458 277.386 380.719 278.359ZM382.898 283.255C383.343 284.348 384.307 285.604 385.04 286.048C385.773 286.491 385.408 285.598 384.231 284.062C383.053 282.526 382.454 282.163 382.898 283.255Z" fill="#21BE7A"/>
</g>
</g>
<g filter="url(#filter2_d_466_733)">
<path d="M162.399 198.739H176.606L185.906 230.892H174.923L173.708 224.723H165.39L164.035 230.892H153.519L162.399 198.739ZM172.587 218.975L169.549 204.908L166.371 218.975H172.587Z" fill="white"/>
<path d="M196.525 231.266C193.876 231.266 191.82 230.44 190.356 228.789C188.923 227.107 188.206 224.817 188.206 221.919V200.095L198.067 198.646V221.218C198.067 222.091 198.269 222.729 198.674 223.134C199.111 223.508 199.858 223.695 200.918 223.695C201.697 223.695 202.46 223.508 203.208 223.134L203.535 229.677C201.447 230.736 199.111 231.266 196.525 231.266Z" fill="white"/>
<path d="M218.066 231.266C215.48 231.266 213.174 230.752 211.149 229.724C209.155 228.664 207.597 227.231 206.476 225.424C205.354 223.586 204.793 221.514 204.793 219.209C204.793 216.841 205.37 214.738 206.522 212.9C207.675 211.061 209.233 209.644 211.196 208.647C213.159 207.65 215.34 207.151 217.739 207.151C220.044 207.151 222.007 207.665 223.627 208.694C225.278 209.691 226.509 211.061 227.319 212.806C228.129 214.52 228.534 216.451 228.534 218.601C228.534 219.162 228.503 219.567 228.441 219.816L214.42 221.639C214.794 222.729 215.402 223.524 216.243 224.022C217.084 224.49 218.19 224.723 219.561 224.723C221.68 224.723 223.97 224.178 226.431 223.088L227.599 229.35C224.702 230.627 221.524 231.266 218.066 231.266ZM221.29 215.75C220.792 213.788 219.608 212.806 217.739 212.806C216.617 212.806 215.729 213.227 215.075 214.068C214.42 214.909 214.078 216 214.047 217.339L221.29 215.75Z" fill="white"/>
<path d="M231.93 207.806H241.323V212.572C243.131 208.958 245.997 207.151 249.922 207.151C252.913 207.151 255.25 208.226 256.933 210.376C258.646 212.495 259.503 215.439 259.503 219.209V230.892H249.689V218.227C249.689 216.888 249.393 215.859 248.801 215.143C248.24 214.426 247.446 214.068 246.417 214.068C245.67 214.068 244.938 214.317 244.221 214.816C243.504 215.283 242.912 215.968 242.445 216.872C242.009 217.775 241.791 218.804 241.791 219.956V230.892H231.93V207.806Z" fill="white"/>
<path d="M273.838 231.266C271.096 231.266 268.962 230.487 267.435 228.929C265.909 227.34 265.145 225.159 265.145 222.387V213.273H262.154V207.478H265.846L270.193 198.646H274.913V207.478H280.334V213.273H274.913V221.218C274.913 221.997 275.162 222.605 275.66 223.041C276.159 223.477 276.86 223.695 277.763 223.695C278.605 223.695 279.368 223.508 280.053 223.134L280.427 229.677C279.648 230.144 278.636 230.534 277.39 230.845C276.174 231.126 274.991 231.266 273.838 231.266Z" fill="white"/>
</g>
<g filter="url(#filter3_d_466_733)">
<path d="M336.345 262.084H346.206V266.851C346.922 265.012 347.888 263.657 349.103 262.785C350.349 261.881 351.798 261.429 353.449 261.429L354.805 269.047C351.845 269.047 349.664 269.374 348.262 270.028C346.891 270.652 346.206 271.649 346.206 273.019V285.17H336.345V262.084Z" fill="white"/>
<path d="M367.53 285.544C365.505 285.544 363.604 285.014 361.828 283.955C360.083 282.865 358.681 281.4 357.622 279.562C356.563 277.693 356.033 275.621 356.033 273.347C356.033 271.103 356.563 269.078 357.622 267.271C358.681 265.433 360.099 264 361.875 262.972C363.651 261.944 365.536 261.429 367.53 261.429C369.15 261.429 370.645 261.881 372.016 262.785C373.418 263.688 374.477 265.044 375.194 266.851V261.429H385.008V285.17H375.194V280.824C373.636 283.971 371.081 285.544 367.53 285.544ZM370.567 278.16C371.814 278.16 372.873 277.724 373.745 276.852C374.649 275.948 375.132 274.889 375.194 273.674V273.3C375.132 272.054 374.633 270.994 373.699 270.122C372.795 269.25 371.751 268.813 370.567 268.813C369.259 268.813 368.137 269.281 367.203 270.215C366.299 271.119 365.847 272.209 365.847 273.487C365.847 274.795 366.315 275.901 367.249 276.805C368.184 277.708 369.29 278.16 370.567 278.16Z" fill="white"/>
<path d="M401.285 285.544C398.793 285.544 396.58 285.046 394.649 284.049C392.748 283.02 391.253 281.587 390.162 279.749C389.103 277.911 388.573 275.823 388.573 273.487C388.573 271.244 389.134 269.203 390.256 267.365C391.377 265.526 392.904 264.078 394.836 263.018C396.767 261.959 398.917 261.429 401.285 261.429C404.307 261.429 406.691 262.053 408.435 263.299L407.547 269.514C405.771 268.985 404.307 268.72 403.154 268.72C401.659 268.72 400.475 269.156 399.603 270.028C398.73 270.87 398.294 272.022 398.294 273.487C398.294 274.951 398.73 276.119 399.603 276.992C400.475 277.864 401.628 278.3 403.061 278.3C404.307 278.3 405.771 278.036 407.454 277.506L408.342 284.049C407.283 284.578 406.208 284.952 405.117 285.17C404.027 285.419 402.749 285.544 401.285 285.544Z" fill="white"/>
<path d="M423.615 285.544C421.029 285.544 418.724 285.03 416.699 284.002C414.705 282.943 413.147 281.509 412.025 279.702C410.904 277.864 410.343 275.792 410.343 273.487C410.343 271.119 410.919 269.016 412.072 267.178C413.225 265.34 414.783 263.922 416.745 262.925C418.708 261.928 420.889 261.429 423.288 261.429C425.594 261.429 427.557 261.944 429.177 262.972C430.828 263.969 432.059 265.34 432.869 267.084C433.679 268.798 434.084 270.729 434.084 272.879C434.084 273.44 434.053 273.845 433.99 274.094L419.97 275.917C420.344 277.007 420.952 277.802 421.793 278.3C422.634 278.768 423.74 279.001 425.111 279.001C427.229 279.001 429.519 278.456 431.981 277.366L433.149 283.628C430.252 284.905 427.074 285.544 423.615 285.544ZM426.84 270.028C426.341 268.066 425.158 267.084 423.288 267.084C422.167 267.084 421.279 267.505 420.624 268.346C419.97 269.187 419.627 270.278 419.596 271.617L426.84 270.028Z" fill="white"/>
</g>
<defs>
<filter id="filter0_d_466_733" x="0" y="0.403548" width="339.978" height="238.163" filterUnits="userSpaceOnUse" color-interpolation-filters="sRGB">
<feFlood flood-opacity="0" result="BackgroundImageFix"/>
<feColorMatrix in="SourceAlpha" type="matrix" values="0 0 0 0 0 0 0 0 0 0 0 0 0 0 0 0 0 0 127 0" result="hardAlpha"/>
<feOffset dx="2.98226" dy="2.38581"/>
<feGaussianBlur stdDeviation="1.49113"/>
<feComposite in2="hardAlpha" operator="out"/>
<feColorMatrix type="matrix" values="0 0 0 0 0 0 0 0 0 0 0 0 0 0 0 0 0 0 0.3 0"/>
<feBlend mode="normal" in2="BackgroundImageFix" result="effect1_dropShadow_466_733"/>
<feBlend mode="normal" in="SourceGraphic" in2="effect1_dropShadow_466_733" result="shape"/>
</filter>
<filter id="filter1_d_466_733" x="173.812" y="58.2601" width="338.785" height="236.969" filterUnits="userSpaceOnUse" color-interpolation-filters="sRGB">
<feFlood flood-opacity="0" result="BackgroundImageFix"/>
<feColorMatrix in="SourceAlpha" type="matrix" values="0 0 0 0 0 0 0 0 0 0 0 0 0 0 0 0 0 0 127 0" result="hardAlpha"/>
<feOffset dx="-1.78936"/>
<feGaussianBlur stdDeviation="1.1929"/>
<feComposite in2="hardAlpha" operator="out"/>
<feColorMatrix type="matrix" values="0 0 0 0 1 0 0 0 0 1 0 0 0 0 1 0 0 0 0.1 0"/>
<feBlend mode="normal" in2="BackgroundImageFix" result="effect1_dropShadow_466_733"/>
<feBlend mode="normal" in="SourceGraphic" in2="effect1_dropShadow_466_733" result="shape"/>
</filter>
<filter id="filter2_d_466_733" x="151.134" y="198.646" width="131.679" height="37.3919" filterUnits="userSpaceOnUse" color-interpolation-filters="sRGB">
<feFlood flood-opacity="0" result="BackgroundImageFix"/>
<feColorMatrix in="SourceAlpha" type="matrix" values="0 0 0 0 0 0 0 0 0 0 0 0 0 0 0 0 0 0 127 0" result="hardAlpha"/>
<feOffset dy="2.38581"/>
<feGaussianBlur stdDeviation="1.1929"/>
<feComposite in2="hardAlpha" operator="out"/>
<feColorMatrix type="matrix" values="0 0 0 0 0 0 0 0 0 0 0 0 0 0 0 0 0 0 0.25 0"/>
<feBlend mode="normal" in2="BackgroundImageFix" result="effect1_dropShadow_466_733"/>
<feBlend mode="normal" in="SourceGraphic" in2="effect1_dropShadow_466_733" result="shape"/>
</filter>
<filter id="filter3_d_466_733" x="333.959" y="261.429" width="102.511" height="28.8862" filterUnits="userSpaceOnUse" color-interpolation-filters="sRGB">
<feFlood flood-opacity="0" result="BackgroundImageFix"/>
<feColorMatrix in="SourceAlpha" type="matrix" values="0 0 0 0 0 0 0 0 0 0 0 0 0 0 0 0 0 0 127 0" result="hardAlpha"/>
<feOffset dy="2.38581"/>
<feGaussianBlur stdDeviation="1.1929"/>
<feComposite in2="hardAlpha" operator="out"/>
<feColorMatrix type="matrix" values="0 0 0 0 0 0 0 0 0 0 0 0 0 0 0 0 0 0 0.25 0"/>
<feBlend mode="normal" in2="BackgroundImageFix" result="effect1_dropShadow_466_733"/>
<feBlend mode="normal" in="SourceGraphic" in2="effect1_dropShadow_466_733" result="shape"/>
</filter>
</defs>
</svg>
